<svg xmlns="http://www.w3.org/2000/svg" width="128" height="128" viewBox="0 0 128 128">
  <rect width="128" height="128" rx="20" fill="#1E232D"/>
  <rect x="8" y="8" width="112" height="112" rx="15" fill="#242933" stroke="#3C4454" stroke-width="2"/>
  <path fill="#88C0D0" d="M64 20 76 52 108 64 76 76 64 108 52 76 20 64 52 52Z"/>
  <path fill="#1E232D" d="m64 37 6 21 21 6-21 6-6 21-6-21-21-6 21-6Z"/>
  <path fill="#D08770" d="m64 25 6 33-6 6-6-6Z"/>
  <path fill="#A3BE8C" d="m103 64-33 6-6-6 6-6Z"/>
  <circle cx="64" cy="64" r="7" fill="#ECEFF4"/>
</svg>
